<?xml version="1.0" encoding="utf-8"?>
<!-- Generator: Adobe Illustrator 25.1.0, SVG Export Plug-In . SVG Version: 6.00 Build 0)  -->
<svg version="1.1" id="Layer_1" xmlns="http://www.w3.org/2000/svg" xmlns:xlink="http://www.w3.org/1999/xlink" x="0px" y="0px"
	 viewBox="0 0 141.65 68.09" style="enable-background:new 0 0 141.65 68.09;" xml:space="preserve">
<style type="text/css">
	.st0{fill:#FDB725;}
</style>
<g>
	<g>
		<path d="M106.76,52.69c-0.04-0.06-0.02-0.2-0.14-0.16c-1.47,1.77-4.04,2.31-6.07,1.47c-1.51-0.64-2.59-2.25-2.47-3.96
			c0.12-1.57,1.09-3.08,2.59-3.66c2.03-0.78,4.47-0.22,5.95,1.41c0.04-0.02,0.14,0.02,0.14-0.06l0.02-3.12l-0.12-0.18l-1.15-0.58
			c-2.19-0.6-4.97-0.64-6.94,0.62c-1.99,1.29-3.28,3.38-3.24,5.75c0.04,2.37,1.31,4.57,3.4,5.81c0.74,0.44,1.59,0.72,2.49,0.86
			c0.04,0.74,0,1.63-0.72,1.87c-0.34,0.1-0.93-0.1-1.25-0.12c-0.02,0.64,0,1.07,0,1.65c0.02,0.06,0.14,0.08,0.14,0.08
			c0.6,0.12,1.29,0.08,1.85-0.14c0.99-0.38,1.79-1.13,1.81-2.23c0-0.26-0.02-0.7-0.02-1.01c1.35-0.08,2.66-0.46,3.72-1.13
			C106.84,54.82,106.72,53.8,106.76,52.69z M102.22,44.24c0.35,0,0.63,0.28,0.63,0.63c0,0.35-0.28,0.63-0.63,0.63
			c-0.35,0-0.63-0.28-0.63-0.63C101.58,44.52,101.87,44.24,102.22,44.24z M102.22,56.4c-0.35,0-0.63-0.28-0.63-0.63
			c0-0.35,0.28-0.63,0.63-0.63c0.35,0,0.63,0.28,0.63,0.63C102.85,56.12,102.57,56.4,102.22,56.4z"/>
		<path d="M115.21,43.4c-3.78,0-6.84,3.06-6.84,6.82c0,3.78,3.06,6.84,6.84,6.84c3.76,0,6.82-3.06,6.82-6.84
			C122.03,46.46,118.97,43.4,115.21,43.4z M115.2,44.21c0.35,0,0.63,0.28,0.63,0.63c0,0.35-0.28,0.63-0.63,0.63
			c-0.35,0-0.63-0.28-0.63-0.63C114.57,44.49,114.85,44.21,115.2,44.21z M109.95,50.85c-0.35,0-0.63-0.28-0.63-0.63
			c0-0.35,0.28-0.63,0.63-0.63c0.35,0,0.63,0.28,0.63,0.63C110.58,50.56,110.3,50.85,109.95,50.85z M115.2,56.4
			c-0.35,0-0.63-0.28-0.63-0.63c0-0.35,0.28-0.63,0.63-0.63c0.35,0,0.63,0.28,0.63,0.63C115.83,56.12,115.55,56.4,115.2,56.4z
			 M115.19,54.36c-2.29,0-4.14-1.87-4.14-4.16c0-2.27,1.85-4.14,4.14-4.14c2.27,0,4.14,1.87,4.14,4.14
			C119.33,52.49,117.46,54.36,115.19,54.36z M120.89,50.85c-0.35,0-0.63-0.28-0.63-0.63c0-0.35,0.28-0.63,0.63-0.63
			c0.35,0,0.63,0.28,0.63,0.63C121.53,50.56,121.24,50.85,120.89,50.85z"/>
		<path d="M93.16,43.66h-2.33c-0.14,0-0.12,0.12-0.12,0.12v8.75l-6.66-8.87h-2.53c-0.12,0-0.1-0.02-0.1,0.1v12.87
			c0,0.18,0.1,0.16,0.1,0.16h2.35c0,0,0.22,0.04,0.18-0.18v-8.85l6.66,9.03h2.49c0,0,0.14,0.02,0.14-0.12V43.78
			C93.34,43.78,93.38,43.66,93.16,43.66z M82.81,56.15c-0.35,0-0.63-0.28-0.63-0.63c0-0.35,0.28-0.63,0.63-0.63
			c0.35,0,0.63,0.28,0.63,0.63C83.44,55.87,83.16,56.15,82.81,56.15z M82.81,45.51c-0.35,0-0.63-0.28-0.63-0.63
			c0-0.35,0.28-0.63,0.63-0.63c0.35,0,0.63,0.28,0.63,0.63C83.44,45.22,83.16,45.51,82.81,45.51z M91.82,56.15
			c-0.35,0-0.63-0.28-0.63-0.63c0-0.35,0.28-0.63,0.63-0.63c0.35,0,0.63,0.28,0.63,0.63C92.45,55.87,92.17,56.15,91.82,56.15z
			 M91.82,45.51c-0.35,0-0.63-0.28-0.63-0.63c0-0.35,0.28-0.63,0.63-0.63c0.35,0,0.63,0.28,0.63,0.63
			C92.45,45.22,92.17,45.51,91.82,45.51z"/>
		<path d="M35.87,43.4c-3.78,0-6.84,3.06-6.84,6.82c0,3.78,3.06,6.84,6.84,6.84c3.76,0,6.82-3.06,6.82-6.84
			C42.69,46.46,39.62,43.4,35.87,43.4z M35.61,44.21c0.35,0,0.63,0.28,0.63,0.63c0,0.35-0.28,0.63-0.63,0.63
			c-0.35,0-0.63-0.28-0.63-0.63C34.98,44.49,35.26,44.21,35.61,44.21z M30.51,50.85c-0.35,0-0.63-0.28-0.63-0.63
			c0-0.35,0.28-0.63,0.63-0.63c0.35,0,0.63,0.28,0.63,0.63C31.14,50.56,30.86,50.85,30.51,50.85z M35.61,56.4
			c-0.35,0-0.63-0.28-0.63-0.63c0-0.35,0.28-0.63,0.63-0.63c0.35,0,0.63,0.28,0.63,0.63C36.24,56.12,35.96,56.4,35.61,56.4z
			 M35.85,54.36c-2.29,0-4.14-1.87-4.14-4.16c0-2.27,1.85-4.14,4.14-4.14c2.27,0,4.14,1.87,4.14,4.14
			C39.98,52.49,38.11,54.36,35.85,54.36z M41.14,50.85c-0.35,0-0.63-0.28-0.63-0.63c0-0.35,0.28-0.63,0.63-0.63
			c0.35,0,0.63,0.28,0.63,0.63C41.77,50.56,41.49,50.85,41.14,50.85z"/>
		<path d="M79.36,54.16c-2.13,0-6.38,0-6.38,0v-2.74c0,0,2.82,0,4.49,0c0.08,0,0.1-0.02,0.1-0.1v-2.43c0-0.06,0-0.1-0.1-0.1
			c-0.4,0-4.61,0-4.61,0v-2.49h6.22c0.08,0,0.1-0.04,0.1-0.12v-2.45c0-0.04-0.02-0.08-0.1-0.1c-0.1,0-5.75,0-8.61,0
			c-0.08,0-0.12,0.04-0.12,0.12c0,0.08,0,12.73,0,12.95c0,0.08,0.04,0.08,0.12,0.08c0.14,0,8.43,0,8.87,0c0.08,0,0.1-0.02,0.1-0.1
			v-2.43C79.44,54.2,79.44,54.16,79.36,54.16z M78.03,44.24c0.35,0,0.63,0.28,0.63,0.63c0,0.35-0.28,0.63-0.63,0.63
			c-0.35,0-0.63-0.28-0.63-0.63C77.39,44.52,77.68,44.24,78.03,44.24z M71.74,56.15c-0.35,0-0.63-0.28-0.63-0.63
			c0-0.35,0.28-0.63,0.63-0.63c0.35,0,0.63,0.28,0.63,0.63C72.37,55.87,72.09,56.15,71.74,56.15z M71.74,45.51
			c-0.35,0-0.63-0.28-0.63-0.63c0-0.35,0.28-0.63,0.63-0.63c0.35,0,0.63,0.28,0.63,0.63C72.37,45.22,72.09,45.51,71.74,45.51z
			 M78.41,56.15c-0.35,0-0.63-0.28-0.63-0.63c0-0.35,0.28-0.63,0.63-0.63c0.35,0,0.63,0.28,0.63,0.63
			C79.05,55.87,78.76,56.15,78.41,56.15z"/>
		<path d="M68.96,56.61c-1.31-2.09-3.02-3.92-4.49-5.95c1.15-0.46,1.73-1.49,1.83-2.61c0.08-0.91-0.18-1.87-0.72-2.62
			c-0.91-1.29-1.85-1.77-3.76-1.79c-1.01,0-2.07,0.02-3.28,0.02c-0.1,0-0.14,0.04-0.14,0.1v12.95c0,0.08,0.04,0.08,0.12,0.08h2.41
			c0.08,0,0.1-0.02,0.1-0.1v-5.07c0-0.1,0.08-0.08,0.08-0.08c0.26,0,0.68,0,0.8,0c1.27,1.73,2.61,3.46,3.96,5.25h2.96
			C68.88,56.77,69,56.73,68.96,56.61z M59.64,56.15c-0.35,0-0.63-0.28-0.63-0.63c0-0.35,0.28-0.63,0.63-0.63
			c0.35,0,0.63,0.28,0.63,0.63C60.27,55.87,59.99,56.15,59.64,56.15z M59.64,45.51c-0.35,0-0.63-0.28-0.63-0.63
			c0-0.35,0.28-0.63,0.63-0.63c0.35,0,0.63,0.28,0.63,0.63C60.27,45.22,59.99,45.51,59.64,45.51z M63.27,48.41
			c-0.56,0.62-1.53,0.52-2.25,0.5v-2.66h0.16c0.88,0,1.93-0.06,2.29,0.86C63.63,47.48,63.59,48.08,63.27,48.41z M66.62,56.15
			c-0.35,0-0.63-0.28-0.63-0.63c0-0.35,0.28-0.63,0.63-0.63c0.35,0,0.63,0.28,0.63,0.63C67.25,55.87,66.97,56.15,66.62,56.15z"/>
		<path d="M56.05,43.66H53.8c0,0-0.12-0.04-0.12,0.1c0,0.74,0,4.95,0.02,7c0.02,1.03-0.24,2.05-0.99,2.8
			c-0.89,0.87-2.13,1.13-3.34,0.82c-1.07-0.28-2.17-1.43-2.27-2.55c0-0.1,0-7.02,0-8.05c0-0.18-0.14-0.12-0.14-0.12h-2.39
			c0,0-0.1-0.02-0.1,0.1v8.07c0,1.55,1.01,2.94,2.23,3.94c1.57,1.27,3.78,1.57,5.69,0.91c2.15-0.76,3.8-2.96,3.82-5.19
			c0.02-2.31,0-6.9,0.02-7.72C56.23,43.6,56.05,43.66,56.05,43.66z M45.77,45.51c-0.35,0-0.63-0.28-0.63-0.63
			c0-0.35,0.28-0.63,0.63-0.63c0.35,0,0.63,0.28,0.63,0.63C46.4,45.22,46.12,45.51,45.77,45.51z M50.28,56.15
			c-0.35,0-0.63-0.28-0.63-0.63c0-0.35,0.28-0.63,0.63-0.63c0.35,0,0.63,0.28,0.63,0.63C50.91,55.87,50.63,56.15,50.28,56.15z
			 M54.87,45.51c-0.35,0-0.63-0.28-0.63-0.63c0-0.35,0.28-0.63,0.63-0.63c0.35,0,0.63,0.28,0.63,0.63
			C55.51,45.22,55.22,45.51,54.87,45.51z"/>
		<path d="M27.73,54.16c-1.63,0-3.26,0-4.89,0v-10.3v-0.1c0-0.06,0-0.1-0.1-0.1h-2.41c-0.08,0-0.12,0.04-0.12,0.1v12.95
			c0,0.08,0.12,0.08,0.12,0.08c2.47,0,4.93,0,7.4,0c0.08,0,0.1-0.02,0.1-0.12v-2.41C27.83,54.2,27.81,54.16,27.73,54.16z
			 M21.56,56.15c-0.35,0-0.63-0.28-0.63-0.63c0-0.35,0.28-0.63,0.63-0.63c0.35,0,0.63,0.28,0.63,0.63
			C22.19,55.87,21.91,56.15,21.56,56.15z M21.56,45.51c-0.35,0-0.63-0.28-0.63-0.63c0-0.35,0.28-0.63,0.63-0.63
			c0.35,0,0.63,0.28,0.63,0.63C22.19,45.22,21.91,45.51,21.56,45.51z M26.51,56.15c-0.35,0-0.63-0.28-0.63-0.63
			c0-0.35,0.28-0.63,0.63-0.63c0.35,0,0.63,0.28,0.63,0.63C27.14,55.87,26.86,56.15,26.51,56.15z"/>
	</g>
	<g>
		<path d="M120.46,2.57c1.04,0.71,1.72,1.82,2.02,3.35l2.12,11.11l1.3-0.23l0.81,4.24l-7.14,1.36l-0.8-4.26l1.16-0.22L117.8,6.74
			c-0.26-1.28-0.98-2.33-2.18-3.14c-0.79-0.54-1.67-0.92-2.61-1.13C116.22,1.34,118.7,1.37,120.46,2.57z M107.63,11.53l10.4-1.77
			l0.98,5.14l-10.05,1.47l-5.43,0.94L87,20.04l-0.93-4.9l16.05-2.69L107.63,11.53z M124.33,8.58l0.97,5.11l-0.99,0.19l-0.97-5.11
			L124.33,8.58z"/>
	</g>
	<path d="M123.96,23.54h-2.71c-0.09,0-0.13,0.04-0.13,0.11v14.61c0,0.09,0.05,0.09,0.13,0.09h2.71c0.09,0,0.11-0.02,0.11-0.11V23.65
		C124.07,23.58,124.07,23.54,123.96,23.54z M122.59,37.61c-0.35,0-0.63-0.28-0.63-0.63c0-0.35,0.28-0.63,0.63-0.63
		c0.35,0,0.63,0.28,0.63,0.63C123.22,37.32,122.94,37.61,122.59,37.61z M122.59,25.67c-0.35,0-0.63-0.28-0.63-0.63
		c0-0.35,0.28-0.63,0.63-0.63c0.35,0,0.63,0.28,0.63,0.63C123.22,25.39,122.94,25.67,122.59,25.67z"/>
	<g>
		<path class="st0" d="M11.04,21.57c-1.66-0.02-3.32,0.29-4.64,1.14c-2.24,1.44-3.7,3.81-3.66,6.48c0.04,2.67,1.48,5.16,3.84,6.55
			c2.62,1.55,6.55,1.35,9.06-0.22c0-1.1,0-3.55,0-3.55c0-0.04-0.02-0.22-0.16-0.18c-1.66,2-4.55,2.6-6.84,1.66
			c-1.7-0.72-2.92-2.54-2.78-4.46c0.13-1.77,1.23-3.48,2.92-4.13c2.29-0.87,5.05-0.25,6.71,1.59c0.09,0.04,0.18,0.02,0.18-0.09v-3.5
			C14.6,21.91,12.16,21.6,11.04,21.57z M10.35,35.17c0.35,0,0.63,0.28,0.63,0.63c0,0.35-0.28,0.63-0.63,0.63
			c-0.35,0-0.63-0.28-0.63-0.63C9.71,35.45,10,35.17,10.35,35.17z M10.35,23.51c-0.35,0-0.63-0.28-0.63-0.63
			c0-0.35,0.28-0.63,0.63-0.63c0.35,0,0.63,0.28,0.63,0.63C10.98,23.23,10.69,23.51,10.35,23.51z"/>
		<path class="st0" d="M139.96,36.43l-5.59-14.52c-0.07-0.13-0.02-0.11-0.18-0.11h-2.85c-0.09,0-0.13,0.09-0.13,0.09l-5.52,14.61
			c-0.04,0.13,0.05,0.11,0.05,0.11h3.23l1.14-2.96h5.56l1.17,2.96h2.96C140.07,36.61,139.96,36.43,139.96,36.43z M127.69,35.8
			c-0.35,0-0.63-0.28-0.63-0.63c0-0.35,0.28-0.63,0.63-0.63c0.35,0,0.63,0.28,0.63,0.63C128.33,35.52,128.04,35.8,127.69,35.8z
			 M132.83,22.53c0.35,0,0.63,0.28,0.63,0.63c0,0.35-0.28,0.63-0.63,0.63c-0.35,0-0.63-0.28-0.63-0.63
			C132.19,22.81,132.48,22.53,132.83,22.53z M131.03,30.68l1.86-4.91l1.68,4.91H131.03z M138.05,35.8c-0.35,0-0.63-0.28-0.63-0.63
			c0-0.35,0.28-0.63,0.63-0.63c0.35,0,0.63,0.28,0.63,0.63C138.68,35.52,138.4,35.8,138.05,35.8z"/>
		<path class="st0" d="M31.32,36.43l-5.59-14.52c-0.07-0.13-0.02-0.11-0.18-0.11H22.7c-0.09,0-0.13,0.09-0.13,0.09l-5.52,14.61
			c-0.05,0.13,0.04,0.11,0.04,0.11h3.23l1.14-2.96h5.56l1.17,2.96h2.96C31.43,36.61,31.32,36.43,31.32,36.43z M19.22,35.8
			c-0.35,0-0.63-0.28-0.63-0.63c0-0.35,0.28-0.63,0.63-0.63c0.35,0,0.63,0.28,0.63,0.63C19.85,35.52,19.57,35.8,19.22,35.8z
			 M24.19,22.65c0.35,0,0.63,0.28,0.63,0.63s-0.28,0.63-0.63,0.63c-0.35,0-0.63-0.28-0.63-0.63S23.84,22.65,24.19,22.65z
			 M22.39,30.68l1.86-4.91l1.68,4.91H22.39z M29.51,35.8c-0.35,0-0.63-0.28-0.63-0.63c0-0.35,0.28-0.63,0.63-0.63
			c0.35,0,0.63,0.28,0.63,0.63C30.14,35.52,29.86,35.8,29.51,35.8z"/>
		<path class="st0" d="M119.54,36.41c-1.48-2.36-3.41-4.42-5.07-6.71c1.3-0.52,1.95-1.68,2.06-2.94c0.09-1.03-0.2-2.11-0.81-2.96
			c-1.03-1.46-2.09-2-4.24-2.02c-1.14,0-2.33,0.02-3.7,0.02c-0.11,0-0.16,0.05-0.16,0.11v14.61c0,0.09,0.05,0.09,0.13,0.09h2.71
			c0.09,0,0.11-0.02,0.11-0.11v-5.72c0-0.11,0.09-0.09,0.09-0.09c0.29,0,0.76,0,0.9,0c1.44,1.95,2.94,3.9,4.46,5.92h3.34
			C119.45,36.58,119.58,36.54,119.54,36.41z M108.97,35.8c-0.35,0-0.63-0.28-0.63-0.63c0-0.35,0.28-0.63,0.63-0.63
			c0.35,0,0.63,0.28,0.63,0.63C109.6,35.52,109.32,35.8,108.97,35.8z M108.97,23.8c-0.35,0-0.63-0.28-0.63-0.63
			c0-0.35,0.28-0.63,0.63-0.63c0.35,0,0.63,0.28,0.63,0.63C109.6,23.51,109.32,23.8,108.97,23.8z M113.12,27.16
			c-0.63,0.7-1.73,0.58-2.54,0.56v-3.01h0.18c0.99,0,2.18-0.07,2.58,0.97C113.53,26.11,113.48,26.78,113.12,27.16z M117.07,35.8
			c-0.35,0-0.63-0.28-0.63-0.63c0-0.35,0.28-0.63,0.63-0.63c0.35,0,0.63,0.28,0.63,0.63C117.7,35.52,117.42,35.8,117.07,35.8z"/>
		<path class="st0" d="M106.05,36.43l-5.59-14.52c-0.07-0.13-0.02-0.11-0.18-0.11h-2.85c-0.09,0-0.13,0.09-0.13,0.09l-5.52,14.61
			c-0.04,0.13,0.04,0.11,0.04,0.11h3.23l1.14-2.96h5.56l1.17,2.96h2.96C106.17,36.61,106.05,36.43,106.05,36.43z M94.27,35.8
			c-0.35,0-0.63-0.28-0.63-0.63c0-0.35,0.28-0.63,0.63-0.63c0.35,0,0.63,0.28,0.63,0.63C94.9,35.52,94.62,35.8,94.27,35.8z
			 M98.93,22.53c0.35,0,0.63,0.28,0.63,0.63c0,0.35-0.28,0.63-0.63,0.63c-0.35,0-0.63-0.28-0.63-0.63
			C98.29,22.81,98.58,22.53,98.93,22.53z M97.13,30.68l1.86-4.91l1.68,4.91H97.13z M104.18,35.8c-0.35,0-0.63-0.28-0.63-0.63
			c0-0.35,0.28-0.63,0.63-0.63c0.35,0,0.63,0.28,0.63,0.63C104.81,35.52,104.53,35.8,104.18,35.8z"/>
		<path class="st0" d="M91.66,21.8H80.08c-0.09,0-0.13,0.05-0.13,0.11v2.76c0,0.09,0.04,0.09,0.13,0.09c0.96,0,3.46,0,4.33,0
			c-0.02,4.08-0.02,7.78-0.02,11.76c0,0.09,0.04,0.09,0.13,0.09h2.71c0.09,0,0.13-0.02,0.13-0.11c0-3.93-0.02-7.83-0.02-11.73
			c1.46-0.02,2.85,0,4.29,0c0.09,0,0.13-0.02,0.13-0.11v-2.76C91.77,21.84,91.75,21.8,91.66,21.8z M81.12,23.8
			c-0.35,0-0.63-0.28-0.63-0.63c0-0.35,0.28-0.63,0.63-0.63c0.35,0,0.63,0.28,0.63,0.63C81.75,23.51,81.47,23.8,81.12,23.8z
			 M85.86,35.8c-0.35,0-0.63-0.28-0.63-0.63c0-0.35,0.28-0.63,0.63-0.63c0.35,0,0.63,0.28,0.63,0.63
			C86.49,35.52,86.21,35.8,85.86,35.8z M90.67,23.8c-0.35,0-0.63-0.28-0.63-0.63c0-0.35,0.28-0.63,0.63-0.63
			c0.35,0,0.63,0.28,0.63,0.63C91.3,23.51,91.02,23.8,90.67,23.8z"/>
		<path class="st0" d="M77.25,21.8h-2.63c-0.16,0-0.13,0.13-0.13,0.13v9.87L66.97,21.8h-2.85c-0.13,0-0.11-0.02-0.11,0.11v14.52
			c0,0.2,0.11,0.18,0.11,0.18h2.65c0,0,0.25,0.04,0.2-0.2v-9.98l7.52,10.19h2.8c0,0,0.16,0.02,0.16-0.13V21.93
			C77.45,21.93,77.49,21.8,77.25,21.8z M65.62,35.8c-0.35,0-0.63-0.28-0.63-0.63c0-0.35,0.28-0.63,0.63-0.63
			c0.35,0,0.63,0.28,0.63,0.63C66.26,35.52,65.97,35.8,65.62,35.8z M65.62,23.8c-0.35,0-0.63-0.28-0.63-0.63
			c0-0.35,0.28-0.63,0.63-0.63c0.35,0,0.63,0.28,0.63,0.63C66.26,23.51,65.97,23.8,65.62,23.8z M75.35,23.16
			c0-0.35,0.28-0.63,0.63-0.63s0.63,0.28,0.63,0.63c0,0.35-0.28,0.63-0.63,0.63S75.35,23.51,75.35,23.16z M76.27,35.8
			c-0.35,0-0.63-0.28-0.63-0.63c0-0.35,0.28-0.63,0.63-0.63c0.35,0,0.63,0.28,0.63,0.63C76.91,35.52,76.62,35.8,76.27,35.8z"/>
		<path class="st0" d="M61.2,21.8h-2.71c-0.09,0-0.13,0.05-0.13,0.11v14.61c0,0.09,0.04,0.09,0.13,0.09h2.71
			c0.09,0,0.11-0.02,0.11-0.11V21.91C61.32,21.84,61.32,21.8,61.2,21.8z M59.84,35.8c-0.35,0-0.63-0.28-0.63-0.63
			c0-0.35,0.28-0.63,0.63-0.63c0.35,0,0.63,0.28,0.63,0.63C60.47,35.52,60.19,35.8,59.84,35.8z M59.84,23.8
			c-0.35,0-0.63-0.28-0.63-0.63c0-0.35,0.28-0.63,0.63-0.63c0.35,0,0.63,0.28,0.63,0.63C60.47,23.51,60.19,23.8,59.84,23.8z"/>
		<path class="st0" d="M55.69,24.15c-0.99-1.73-2.58-2.24-4.35-2.36c-1.55-0.11-4.76,0-4.76,0s-0.22-0.04-0.2,0.16
			c0,0.13,0,14.52,0,14.52s0,0.13,0.16,0.13c0.13,0,2.62,0,2.62,0c0.13,0.02,0.18-0.11,0.18-0.11c0-5.83,0-4.89,0.02-5.12h2.24
			c1.8,0,3.34-1.08,4.22-2.58C56.6,27.45,56.45,25.48,55.69,24.15z M47.87,35.8c-0.35,0-0.63-0.28-0.63-0.63
			c0-0.35,0.28-0.63,0.63-0.63c0.35,0,0.63,0.28,0.63,0.63C48.5,35.52,48.22,35.8,47.87,35.8z M47.87,23.8
			c-0.35,0-0.63-0.28-0.63-0.63c0-0.35,0.28-0.63,0.63-0.63c0.35,0,0.63,0.28,0.63,0.63C48.5,23.51,48.22,23.8,47.87,23.8z
			 M52.97,27.9c-0.45,0.56-1.19,0.72-1.91,0.76c-0.65,0.05-1.3-0.02-1.73,0v-4.02c-0.02-0.09,0.13-0.09,0.13-0.09
			c0.45-0.02,0.99,0.02,1.41,0c1.05,0.09,2.06,0.36,2.47,1.44C53.6,26.65,53.42,27.39,52.97,27.9z"/>
		<path class="st0" d="M44.8,36.41c-1.48-2.36-3.41-4.42-5.07-6.71c1.3-0.52,1.95-1.68,2.06-2.94c0.09-1.03-0.2-2.11-0.81-2.96
			c-1.03-1.46-2.09-2-4.24-2.02c-1.14,0-2.33,0.02-3.7,0.02c-0.11,0-0.16,0.05-0.16,0.11v14.61c0,0.09,0.04,0.09,0.13,0.09h2.71
			c0.09,0,0.11-0.02,0.11-0.11v-5.72c0-0.11,0.09-0.09,0.09-0.09c0.29,0,0.76,0,0.9,0c1.44,1.95,2.94,3.9,4.47,5.92h3.34
			C44.71,36.58,44.85,36.54,44.8,36.41z M34.55,35.8c-0.35,0-0.63-0.28-0.63-0.63c0-0.35,0.28-0.63,0.63-0.63
			c0.35,0,0.63,0.28,0.63,0.63C35.19,35.52,34.9,35.8,34.55,35.8z M34.55,23.8c-0.35,0-0.63-0.28-0.63-0.63
			c0-0.35,0.28-0.63,0.63-0.63c0.35,0,0.63,0.28,0.63,0.63C35.19,23.51,34.9,23.8,34.55,23.8z M38.39,27.16
			c-0.63,0.7-1.73,0.58-2.53,0.56v-3.01h0.18c0.99,0,2.18-0.07,2.58,0.97C38.79,26.11,38.75,26.78,38.39,27.16z M42.22,35.8
			c-0.35,0-0.63-0.28-0.63-0.63c0-0.35,0.28-0.63,0.63-0.63c0.35,0,0.63,0.28,0.63,0.63C42.85,35.52,42.57,35.8,42.22,35.8z"/>
	</g>
	<g>
		<path d="M128.33,42.44c0.62,0,1.22,0.16,1.79,0.47c0.57,0.31,1.02,0.76,1.35,1.34c0.33,0.58,0.49,1.19,0.49,1.82
			c0,0.63-0.16,1.23-0.48,1.81c-0.32,0.57-0.77,1.02-1.34,1.34c-0.57,0.32-1.18,0.48-1.81,0.48c-0.63,0-1.23-0.16-1.81-0.48
			c-0.57-0.32-1.02-0.77-1.34-1.34c-0.32-0.57-0.48-1.18-0.48-1.81c0-0.64,0.16-1.24,0.49-1.82c0.33-0.58,0.78-1.03,1.35-1.34
			C127.11,42.59,127.7,42.44,128.33,42.44z M128.33,43.15c-0.5,0-0.98,0.12-1.44,0.37c-0.46,0.25-0.82,0.61-1.08,1.08
			c-0.26,0.47-0.4,0.96-0.4,1.47c0,0.51,0.13,0.99,0.39,1.46c0.26,0.46,0.62,0.82,1.08,1.08c0.46,0.26,0.94,0.39,1.45,0.39
			c0.51,0,0.99-0.13,1.45-0.39c0.46-0.26,0.82-0.62,1.08-1.08c0.26-0.46,0.39-0.95,0.39-1.46c0-0.51-0.13-1-0.4-1.47
			c-0.26-0.47-0.63-0.83-1.09-1.08C129.31,43.27,128.83,43.15,128.33,43.15z M126.69,48.01v-3.85h0.78c0.73,0,1.14,0,1.23,0.01
			c0.26,0.02,0.46,0.07,0.6,0.15c0.14,0.08,0.26,0.2,0.36,0.37c0.1,0.17,0.14,0.35,0.14,0.55c0,0.28-0.09,0.52-0.27,0.71
			c-0.18,0.2-0.44,0.32-0.77,0.37c0.12,0.04,0.21,0.09,0.27,0.14c0.06,0.05,0.15,0.15,0.26,0.3c0.03,0.04,0.12,0.19,0.28,0.47
			l0.46,0.78h-0.97l-0.32-0.63c-0.22-0.42-0.4-0.68-0.54-0.79c-0.14-0.11-0.32-0.16-0.54-0.16h-0.2v1.58H126.69z M127.47,45.82h0.32
			c0.45,0,0.73-0.02,0.84-0.05c0.11-0.03,0.2-0.1,0.26-0.18c0.06-0.09,0.09-0.19,0.09-0.3c0-0.11-0.03-0.2-0.09-0.29
			c-0.06-0.08-0.15-0.14-0.26-0.18c-0.11-0.04-0.39-0.05-0.84-0.05h-0.32V45.82z"/>
	</g>
</g>
<g>
	<path d="M28.3,62.82h0.4v2.08c0,0.83-0.41,1.08-0.94,1.08c-0.15,0-0.33-0.03-0.43-0.07l0.06-0.33c0.08,0.03,0.2,0.06,0.34,0.06
		c0.36,0,0.57-0.16,0.57-0.77V62.82z"/>
	<path d="M32.02,64.34c0,1.07-0.65,1.64-1.44,1.64c-0.82,0-1.4-0.64-1.4-1.58c0-0.99,0.61-1.63,1.44-1.63
		C31.47,62.77,32.02,63.42,32.02,64.34z M29.61,64.39c0,0.66,0.36,1.26,0.99,1.26c0.64,0,1-0.59,1-1.29c0-0.62-0.32-1.26-0.99-1.26
		C29.94,63.1,29.61,63.71,29.61,64.39z"/>
	<path d="M32.98,64.95l-0.32,0.98h-0.41l1.06-3.11h0.48l1.06,3.11h-0.43l-0.33-0.98H32.98z M32.98,62.63c0-0.28,0.12-0.47,0.31-0.47
		c0.1,0,0.18,0.04,0.28,0.09c0.07,0.04,0.15,0.08,0.22,0.08c0.07,0,0.11-0.03,0.12-0.18h0.22c0,0.29-0.1,0.45-0.31,0.45
		c-0.1,0-0.18-0.04-0.28-0.09c-0.09-0.05-0.15-0.09-0.22-0.09c-0.07,0-0.11,0.08-0.12,0.2H32.98z M34,64.64l-0.3-0.89
		c-0.07-0.2-0.12-0.39-0.16-0.57h-0.01c-0.05,0.18-0.1,0.37-0.16,0.56l-0.3,0.9H34z"/>
	<path d="M37.88,64.34c0,1.07-0.65,1.64-1.44,1.64c-0.82,0-1.4-0.64-1.4-1.58c0-0.99,0.61-1.63,1.44-1.63
		C37.33,62.77,37.88,63.42,37.88,64.34z M35.47,64.39c0,0.66,0.36,1.26,0.99,1.26c0.64,0,1-0.59,1-1.29c0-0.62-0.32-1.26-0.99-1.26
		C35.8,63.1,35.47,63.71,35.47,64.39z"/>
	<path d="M42,64.56c-0.02-0.43-0.05-0.95-0.05-1.34h-0.01c-0.11,0.36-0.23,0.75-0.39,1.18L41,65.91h-0.3l-0.5-1.48
		c-0.15-0.44-0.27-0.84-0.36-1.21h-0.01c-0.01,0.39-0.03,0.91-0.06,1.37l-0.08,1.33H39.3l0.22-3.11h0.51l0.53,1.5
		c0.13,0.38,0.23,0.72,0.31,1.05h0.01c0.08-0.31,0.19-0.65,0.33-1.05l0.55-1.5h0.51l0.19,3.11h-0.39L42,64.56z"/>
	<path d="M43.49,62.82v3.11h-0.4v-3.11H43.49z"/>
	<path d="M46.55,65.79c-0.18,0.06-0.53,0.17-0.95,0.17c-0.47,0-0.86-0.12-1.16-0.41C44.17,65.29,44,64.88,44,64.39
		c0-0.93,0.64-1.6,1.68-1.6c0.36,0,0.64,0.08,0.77,0.14l-0.1,0.33c-0.17-0.07-0.37-0.13-0.69-0.13c-0.76,0-1.25,0.47-1.25,1.25
		c0,0.79,0.47,1.25,1.2,1.25c0.26,0,0.44-0.04,0.53-0.08v-0.93h-0.63V64.3h1.02V65.79z"/>
	<path d="M47.57,62.82v1.84c0,0.7,0.31,0.99,0.72,0.99c0.46,0,0.76-0.3,0.76-0.99v-1.84h0.41v1.81c0,0.95-0.5,1.35-1.17,1.35
		c-0.64,0-1.12-0.36-1.12-1.33v-1.83H47.57z"/>
	<path d="M51.75,64.47h-1.21v1.12h1.35v0.34h-1.75v-3.11h1.68v0.34h-1.28v0.98h1.21V64.47z"/>
	<path d="M52.41,62.82h0.4v2.77h1.33v0.34h-1.73V62.82z"/>
	<path d="M55.57,62.82h0.4v2.77h1.33v0.34h-1.73V62.82z"/>
	<path d="M60.22,64.34c0,1.07-0.65,1.64-1.44,1.64c-0.82,0-1.4-0.64-1.4-1.58c0-0.99,0.61-1.63,1.44-1.63
		C59.67,62.77,60.22,63.42,60.22,64.34z M57.81,64.39c0,0.66,0.36,1.26,0.99,1.26c0.64,0,1-0.59,1-1.29c0-0.62-0.32-1.26-0.99-1.26
		C58.14,63.1,57.81,63.71,57.81,64.39z"/>
	<path d="M61.14,62.82v1.84c0,0.7,0.31,0.99,0.72,0.99c0.46,0,0.76-0.3,0.76-0.99v-1.84h0.41v1.81c0,0.95-0.5,1.35-1.17,1.35
		c-0.64,0-1.12-0.36-1.12-1.33v-1.83H61.14z"/>
	<path d="M63.72,62.86c0.2-0.04,0.49-0.06,0.77-0.06c0.43,0,0.71,0.08,0.9,0.25c0.16,0.14,0.24,0.35,0.24,0.59
		c0,0.41-0.26,0.68-0.59,0.79v0.01c0.24,0.08,0.38,0.3,0.46,0.63c0.1,0.43,0.17,0.73,0.24,0.85h-0.41
		c-0.05-0.09-0.12-0.36-0.21-0.74c-0.09-0.43-0.26-0.59-0.62-0.6h-0.38v1.35h-0.4V62.86z M64.12,64.28h0.41
		c0.43,0,0.7-0.23,0.7-0.59c0-0.4-0.29-0.58-0.71-0.58c-0.19,0-0.33,0.02-0.4,0.04V64.28z"/>
	<path d="M67.81,64.47H66.6v1.12h1.35v0.34H66.2v-3.11h1.68v0.34H66.6v0.98h1.21V64.47z"/>
	<path d="M68.47,65.93v-3.11h0.44l1,1.57c0.23,0.36,0.41,0.69,0.56,1.01l0.01,0c-0.04-0.42-0.05-0.79-0.05-1.28v-1.3h0.38v3.11
		h-0.41l-0.99-1.58c-0.22-0.35-0.42-0.7-0.58-1.04l-0.01,0c0.02,0.39,0.03,0.76,0.03,1.28v1.33H68.47z"/>
	<path d="M73.67,65.83c-0.15,0.07-0.44,0.15-0.82,0.15l-0.11,0.18c0.17,0.03,0.32,0.16,0.32,0.35c0,0.27-0.23,0.37-0.47,0.37
		c-0.12,0-0.25-0.03-0.33-0.08l0.06-0.21c0.07,0.04,0.16,0.06,0.26,0.06c0.11,0,0.19-0.04,0.19-0.14c0-0.12-0.14-0.18-0.36-0.2
		l0.19-0.35c-0.76-0.09-1.3-0.63-1.3-1.56c0-0.97,0.66-1.63,1.62-1.63c0.39,0,0.63,0.08,0.74,0.14l-0.1,0.33
		c-0.15-0.07-0.37-0.13-0.63-0.13c-0.73,0-1.21,0.46-1.21,1.28c0,0.76,0.44,1.25,1.19,1.25c0.24,0,0.49-0.05,0.65-0.13L73.67,65.83z
		"/>
	<path d="M76.73,64.34c0,1.07-0.65,1.64-1.44,1.64c-0.82,0-1.4-0.64-1.4-1.58c0-0.99,0.61-1.63,1.44-1.63
		C76.18,62.77,76.73,63.42,76.73,64.34z M74.32,64.39c0,0.66,0.36,1.26,0.99,1.26c0.64,0,1-0.59,1-1.29c0-0.62-0.32-1.26-0.99-1.26
		C74.65,63.1,74.32,63.71,74.32,64.39z"/>
	<path d="M76.82,66.5c0.1-0.27,0.23-0.76,0.28-1.1l0.45-0.05c-0.11,0.39-0.31,0.9-0.44,1.12L76.82,66.5z"/>
	<path d="M79.43,62.82v1.84c0,0.7,0.31,0.99,0.72,0.99c0.46,0,0.76-0.3,0.76-0.99v-1.84h0.41v1.81c0,0.95-0.5,1.35-1.17,1.35
		c-0.64,0-1.12-0.36-1.12-1.33v-1.83H79.43z"/>
	<path d="M82.01,65.93v-3.11h0.44l1,1.57c0.23,0.36,0.41,0.69,0.56,1.01l0.01,0c-0.04-0.42-0.05-0.79-0.05-1.28v-1.3h0.38v3.11
		h-0.41l-0.99-1.58c-0.22-0.35-0.42-0.7-0.58-1.04l-0.01,0c0.02,0.39,0.03,0.76,0.03,1.28v1.33H82.01z"/>
	<path d="M85.44,62.82v3.11h-0.4v-3.11H85.44z"/>
	<path d="M86.14,62.86c0.19-0.03,0.45-0.06,0.77-0.06c0.4,0,0.69,0.09,0.87,0.26c0.17,0.15,0.27,0.37,0.27,0.65
		c0,0.28-0.08,0.5-0.24,0.66c-0.21,0.23-0.56,0.34-0.95,0.34c-0.12,0-0.23,0-0.32-0.03v1.24h-0.4V62.86z M86.54,64.36
		c0.09,0.02,0.2,0.03,0.33,0.03c0.48,0,0.78-0.24,0.78-0.66c0-0.41-0.29-0.61-0.73-0.61c-0.17,0-0.31,0.01-0.38,0.03V64.36z"/>
	<path d="M90.2,64.47h-1.21v1.12h1.35v0.34h-1.75v-3.11h1.68v0.34h-1.28v0.98h1.21V64.47z"/>
	<path d="M90.81,65.44c0.18,0.11,0.44,0.2,0.72,0.2c0.41,0,0.65-0.22,0.65-0.53c0-0.29-0.17-0.46-0.58-0.62
		c-0.51-0.18-0.82-0.44-0.82-0.88c0-0.48,0.4-0.84,1-0.84c0.32,0,0.55,0.07,0.69,0.15l-0.11,0.33c-0.1-0.05-0.31-0.15-0.59-0.15
		c-0.42,0-0.59,0.25-0.59,0.47c0,0.29,0.19,0.43,0.62,0.6c0.53,0.2,0.79,0.46,0.79,0.91c0,0.48-0.35,0.89-1.09,0.89
		c-0.3,0-0.63-0.09-0.79-0.2L90.81,65.44z"/>
	<path d="M93.08,65.44c0.18,0.11,0.44,0.2,0.72,0.2c0.41,0,0.65-0.22,0.65-0.53c0-0.29-0.17-0.46-0.59-0.62
		c-0.51-0.18-0.82-0.44-0.82-0.88c0-0.48,0.4-0.84,1-0.84c0.32,0,0.55,0.07,0.69,0.15l-0.11,0.33c-0.1-0.05-0.31-0.15-0.59-0.15
		c-0.42,0-0.58,0.25-0.58,0.47c0,0.29,0.19,0.43,0.62,0.6c0.53,0.2,0.79,0.46,0.79,0.91c0,0.48-0.36,0.89-1.09,0.89
		c-0.3,0-0.63-0.09-0.79-0.2L93.08,65.44z"/>
	<path d="M98.06,64.34c0,1.07-0.65,1.64-1.44,1.64c-0.82,0-1.4-0.64-1.4-1.58c0-0.99,0.61-1.63,1.44-1.63
		C97.51,62.77,98.06,63.42,98.06,64.34z M95.65,64.39c0,0.66,0.36,1.26,0.99,1.26c0.64,0,1-0.59,1-1.29c0-0.62-0.32-1.26-0.99-1.26
		C95.98,63.1,95.65,63.71,95.65,64.39z"/>
	<path d="M99.02,64.95l-0.32,0.98h-0.41l1.05-3.11h0.48l1.06,3.11h-0.43l-0.33-0.98H99.02z M100.04,64.64l-0.3-0.89
		c-0.07-0.2-0.12-0.39-0.16-0.57h-0.01c-0.05,0.18-0.1,0.37-0.16,0.56l-0.3,0.9H100.04z"/>
	<path d="M101.34,62.82h0.4v2.77h1.33v0.34h-1.73V62.82z"/>
	<path d="M103.23,66.5c0.1-0.27,0.23-0.76,0.28-1.1l0.45-0.05c-0.11,0.39-0.31,0.9-0.44,1.12L103.23,66.5z"/>
	<path d="M105.44,62.82h0.4v2.77h1.33v0.34h-1.73V62.82z"/>
	<path d="M107.62,62.86c0.24-0.04,0.53-0.06,0.85-0.06c0.58,0,0.99,0.13,1.26,0.39c0.28,0.25,0.44,0.61,0.44,1.12
		c0,0.51-0.16,0.92-0.45,1.21c-0.29,0.29-0.77,0.45-1.37,0.45c-0.29,0-0.52-0.01-0.73-0.04V62.86z M108.02,65.61
		c0.1,0.02,0.25,0.02,0.41,0.02c0.86,0,1.32-0.48,1.32-1.32c0-0.73-0.41-1.2-1.26-1.2c-0.21,0-0.36,0.02-0.47,0.04V65.61z"/>
	<path d="M111.13,64.95l-0.32,0.98h-0.41l1.06-3.11h0.48l1.06,3.11h-0.43l-0.33-0.98H111.13z M112.14,64.64l-0.3-0.89
		c-0.07-0.2-0.12-0.39-0.16-0.57h-0.01c-0.05,0.18-0.1,0.37-0.16,0.56l-0.3,0.9H112.14z"/>
</g>
</svg>
