<?xml version="1.0" encoding="utf-8"?>
<!-- Generator: Adobe Illustrator 25.1.0, SVG Export Plug-In . SVG Version: 6.00 Build 0)  -->
<svg version="1.1" id="Layer_1" xmlns="http://www.w3.org/2000/svg" xmlns:xlink="http://www.w3.org/1999/xlink" x="0px" y="0px"
	 viewBox="0 0 738 399.9" style="enable-background:new 0 0 738 399.9;" xml:space="preserve">
<style type="text/css">
	.st0{fill:#231F20;}
	.st1{fill:#FDB725;}
</style>
<g>
	<path class="st0" d="M525.5,281.4c0-0.3,0-0.9-0.6-0.7c-6.6,7.7-17.4,10.3-26.8,6.5c-7-3-11.4-10.1-10.9-17.7
		c0.4-7.1,4.8-13.4,11.4-16.1c9.3-3.5,19.8-1.1,26.5,6.2c0,0,0.6,0,0.6-0.3v-13.8l-0.5-0.8l-5.1-2.6c-9.7-2.7-22.1-2.8-30.7,2.7
		c-8.9,5.4-14.3,15-14.4,25.4c0.2,10.6,5.8,20.3,14.9,25.7c3.4,2,7.1,3.2,11,3.8c0,3.2,0,7.2-3.2,8.2c-1.9,0.1-3.7-0.1-5.5-0.5
		c0,2.8,0,4.7,0,7.3c0,0.3,0.6,0.4,0.6,0.4c2.7,0.5,5.6,0.3,8.2-0.6c4.4-1.3,7.5-5.2,7.8-9.7c0-1.1,0-3.1,0-4.4
		c5.8-0.2,11.5-1.9,16.4-5C525.8,290.8,525.3,286.3,525.5,281.4z M505.4,244.1c1.5,0,2.8,1.2,2.8,2.8c0,1.5-1.2,2.8-2.8,2.8
		c-1.6,0-2.8-1.3-2.8-2.8C502.6,245.3,503.8,244.1,505.4,244.1z M505.4,297.8c-1.5,0-2.8-1.2-2.8-2.8c0-1.6,1.3-2.8,2.8-2.8
		c1.5,0,2.8,1.3,2.8,2.8C508.2,296.6,506.9,297.8,505.4,297.8C505.4,297.8,505.4,297.8,505.4,297.8z"/>
	<path class="st0" d="M562.8,240.3c-16.7-0.1-30.3,13.3-30.4,30c-0.1,16.7,13.3,30.3,30,30.4s30.3-13.3,30.4-30c0-0.1,0-0.1,0-0.2
		C592.8,253.9,579.4,240.4,562.8,240.3z M562.8,243.9c1.5,0,2.8,1.2,2.8,2.8c0,1.5-1.2,2.8-2.8,2.8c-1.5,0-2.8-1.2-2.8-2.8l0,0
		C560,245.2,561.3,244,562.8,243.9L562.8,243.9z M539.8,273.3c-1.6,0-2.8-1.3-2.8-2.8c0-1.5,1.3-2.8,2.8-2.8c1.5,0,2.8,1.2,2.8,2.8
		C542.6,272,541.3,273.3,539.8,273.3z M563,297.8c-1.5,0-2.8-1.2-2.8-2.8c0-1.5,1.2-2.8,2.8-2.8c1.5,0,2.8,1.2,2.8,2.8l0,0
		C565.8,296.6,564.5,297.8,563,297.8c-0.1,0-0.1,0-0.2,0L563,297.8z M563,289c-10.1,0-18.4-8.2-18.4-18.3c0-10.1,8.2-18.4,18.3-18.4
		c10.1,0,18.4,8.2,18.4,18.3c-0.1,10.1-8.3,18.3-18.5,18.2c0,0-0.1,0-0.1,0L563,289z M588.2,273.5c-1.5,0-2.8-1.3-2.8-2.8
		c0-1.5,1.2-2.8,2.8-2.8c1.5,0,2.8,1.2,2.8,2.8c-0.1,1.6-1.4,2.8-3,2.7c0,0-0.1,0-0.1,0L588.2,273.5z"/>
	<path class="st0" d="M465.3,241.5H455c-0.6,0-0.5,0.5-0.5,0.5v38.7L425,241.5h-11.2c-0.5,0-0.4,0-0.4,0.4v56.9
		c0,0.8,0.4,0.7,0.4,0.7h10.4c0,0,1,0,0.8-0.8v-39.1l29.4,39.8h11c0.3,0,0.6-0.1,0.6-0.4c0,0,0-0.1,0-0.1V242
		C466.1,242,466.3,241.5,465.3,241.5z M419.6,296.7c-1.5,0-2.8-1.2-2.8-2.8c0-1.5,1.2-2.8,2.8-2.8c1.5,0,2.8,1.2,2.8,2.8l0,0
		C422.3,295.5,421.1,296.7,419.6,296.7z M419.6,249.7c-1.5,0-2.8-1.3-2.8-2.8c0-1.5,1.2-2.8,2.8-2.8c1.5,0,2.8,1.2,2.8,2.8l0,0
		C422.3,248.4,421.1,249.7,419.6,249.7z M459.4,296.7c-1.5,0-2.8-1.2-2.8-2.8c0-1.5,1.2-2.8,2.8-2.8c1.5,0,2.8,1.2,2.8,2.8l0,0
		C462.1,295.5,460.9,296.7,459.4,296.7L459.4,296.7z M459.4,249.7c-1.5,0-2.8-1.3-2.8-2.8c0-1.5,1.2-2.8,2.8-2.8
		c1.5,0,2.8,1.2,2.8,2.8l0,0C462.1,248.4,460.9,249.6,459.4,249.7L459.4,249.7z"/>
	<path class="st0" d="M212,240.3c-16.7,0-30.2,13.5-30.2,30.2c0,16.7,13.5,30.2,30.2,30.2c16.7,0,30.2-13.5,30.2-30.2
		c0,0,0-0.1,0-0.1C242.1,253.9,228.6,240.4,212,240.3z M210.9,243.9c1.5,0,2.8,1.2,2.8,2.8c0,1.5-1.2,2.8-2.8,2.8
		c-1.5,0-2.8-1.2-2.8-2.8C208.1,245.2,209.3,243.9,210.9,243.9C210.9,243.9,210.9,243.9,210.9,243.9z M188.3,273.3
		c-1.5,0-2.8-1.3-2.8-2.8c0-1.5,1.2-2.8,2.8-2.8s2.8,1.2,2.8,2.8C191.1,272,189.9,273.3,188.3,273.3z M210.9,297.8
		c-1.5,0-2.8-1.2-2.8-2.8c0,0,0,0,0,0c0-1.5,1.2-2.8,2.8-2.8c1.5,0,2.8,1.2,2.8,2.8c0,0,0,0,0,0
		C213.6,296.6,212.4,297.8,210.9,297.8z M211.9,289c-10.1,0-18.3-8.2-18.3-18.4c0-10.1,8.2-18.3,18.4-18.3c10,0,18.2,8.1,18.3,18.1
		c0,10.1-8.2,18.4-18.3,18.4c0,0,0,0,0,0L211.9,289z M235.3,273.5c-1.5,0-2.8-1.3-2.8-2.8c0-1.5,1.2-2.8,2.8-2.8s2.8,1.2,2.8,2.8
		c0,0,0,0,0,0c-0.1,1.5-1.3,2.6-2.8,2.7L235.3,273.5z"/>
	<path class="st0" d="M404.3,287.9h-28.1v-12.1h19.9c0.4,0,0.4,0,0.4-0.4v-10.7c0-0.3,0-0.4-0.4-0.4h-20.6v-11h27.5
		c0.4,0,0.4,0,0.4-0.5v-10.8c0,0,0-0.4-0.4-0.4H365c-0.3,0-0.5,0.2-0.5,0.4c0,0,0,0.1,0,0.1v57.5c0,0.4,0,0.4,0.5,0.4h39.2
		c0.4,0,0.4,0,0.4-0.4v-11C404.7,288.1,404.7,287.9,404.3,287.9z M398.3,244.1c1.5,0,2.8,1.2,2.8,2.8c0,1.5-1.2,2.8-2.8,2.8
		c-1.6,0-2.8-1.3-2.8-2.8C395.5,245.3,396.7,244.1,398.3,244.1z M370.6,296.7c-1.5,0-2.8-1.2-2.8-2.8c0-1.5,1.2-2.8,2.8-2.8
		c1.5,0,2.8,1.2,2.8,2.8l0,0C373.4,295.5,372.2,296.7,370.6,296.7z M370.6,249.7c-1.5,0-2.8-1.3-2.8-2.8c0-1.5,1.2-2.8,2.8-2.8
		c1.5,0,2.8,1.2,2.8,2.8l0,0C373.4,248.4,372.2,249.7,370.6,249.7z M400.1,296.7c-1.5,0-2.8-1.2-2.8-2.8s1.2-2.8,2.8-2.8
		c0,0,0,0,0,0c1.5,0,2.8,1.2,2.8,2.8C402.9,295.5,401.7,296.7,400.1,296.7C400.1,296.7,400.1,296.7,400.1,296.7z"/>
	<path class="st0" d="M358.5,298.8c-5.8-9.2-13.3-17.3-19.9-26.5c4.7-2,7.8-6.4,8.1-11.5c0.3-4.1-0.8-8.2-3.1-11.6
		c-3.6-5.5-10-8.6-16.6-7.9h-14.5c-0.4,0-0.6,0-0.6,0.4v57.5c0,0.4,0,0.4,0.5,0.4h10.6c0.4,0,0.4,0,0.4-0.4v-22.3
		c0-0.4,0.4-0.4,0.4-0.4h3.5c5.6,7.6,11.5,15.3,17.5,23.2H358C358,299.5,358.5,299.3,358.5,298.8z M317.3,296.7
		c-1.5,0-2.8-1.2-2.8-2.8s1.2-2.8,2.8-2.8c0,0,0,0,0,0c1.5,0,2.8,1.3,2.8,2.8C320.1,295.5,318.8,296.7,317.3,296.7z M317.3,249.7
		c-1.6,0-2.8-1.3-2.8-2.8c0-1.5,1.3-2.8,2.8-2.8c1.5,0,2.8,1.2,2.8,2.8c0,0,0,0,0,0C320.1,248.4,318.8,249.7,317.3,249.7
		c-0.1,0-0.1,0-0.2,0L317.3,249.7z M333.3,262.5c-2.5,2.7-6.8,2.3-9.9,2.2V253h0.7c3.9,0,8.5-0.3,10.1,3.8c0.7,2,0.3,4.2-1.1,5.8
		H333.3z M348.2,296.7c-1.5,0-2.8-1.2-2.8-2.8c0-1.5,1.2-2.8,2.8-2.8c1.5,0,2.8,1.2,2.8,2.8l0,0
		C350.9,295.5,349.7,296.7,348.2,296.7c-0.1,0-0.1,0-0.2,0H348.2z"/>
	<path class="st0" d="M301.2,241.5h-9.9c0,0-0.5,0-0.5,0.4c0,3.3,0,22.1,0,31c0.3,4.6-1.3,9.1-4.4,12.4c-3.9,3.8-9.6,5.2-14.8,3.6
		c-5.2-1.6-9.1-5.9-10-11.3v-35.4c0-0.8-0.6-0.5-0.6-0.5h-10.4c0,0-0.4,0-0.4,0.4v35.7c0.5,7,4.1,13.3,9.8,17.4
		c7.1,5.6,16.6,7.1,25.2,4.1c9.7-3.6,16.4-12.6,16.9-22.9c0-10.2,0-30.5,0-34.1C302,241.2,301.2,241.5,301.2,241.5z M255.8,249.7
		c-1.5,0-2.8-1.3-2.8-2.8c0-1.5,1.3-2.8,2.8-2.8c1.5,0,2.8,1.2,2.8,2.8C258.6,248.4,257.3,249.7,255.8,249.7z M275.7,296.7
		c-1.5,0-2.8-1.2-2.8-2.8c0-1.5,1.2-2.8,2.8-2.8c0,0,0,0,0,0c1.5,0,2.8,1.2,2.8,2.8C278.5,295.5,277.3,296.7,275.7,296.7
		C275.7,296.7,275.7,296.7,275.7,296.7z M296,249.7c-1.5,0-2.8-1.3-2.8-2.8c0-1.5,1.2-2.8,2.8-2.8c0,0,0,0,0,0
		c1.5,0,2.8,1.2,2.8,2.8C298.8,248.4,297.6,249.7,296,249.7z"/>
	<path class="st0" d="M176,287.9h-21.6v-46c0-0.3,0-0.4-0.4-0.4h-10.7c-0.2,0-0.5,0.2-0.5,0.4c0,0,0,0,0,0v57.5
		c0,0.4,0.5,0.4,0.5,0.4H176c0.4,0,0.4,0,0.4-0.5v-10.9C176.5,288.1,176.4,287.9,176,287.9z M148.7,296.8c-1.5,0-2.8-1.2-2.8-2.8
		c0-1.5,1.2-2.8,2.8-2.8s2.8,1.2,2.8,2.8C151.5,295.5,150.3,296.7,148.7,296.8L148.7,296.8z M148.7,249.7c-1.5,0-2.8-1.3-2.8-2.8
		c0-1.5,1.2-2.8,2.8-2.8c1.5,0,2.8,1.2,2.8,2.8C151.5,248.4,150.3,249.7,148.7,249.7L148.7,249.7z M170.8,296.8
		c-1.5,0-2.8-1.2-2.8-2.8c0-1.5,1.2-2.8,2.8-2.8s2.8,1.2,2.8,2.8C173.6,295.5,172.3,296.8,170.8,296.8c-0.1,0-0.2,0-0.2,0
		L170.8,296.8z"/>
	<path class="st0" d="M586,59.8c4.8,3.5,8,8.9,8.8,14.8l9.4,49l5.8-1l3.5,18.7l-31.5,6l-3.5-18.8l5.1-1l-9.4-49.3
		c-1.2-5.8-4.7-10.8-9.6-13.9c-3.5-2.4-7.4-4.1-11.6-5C567.3,54.4,578.3,54.5,586,59.8z M529.3,99.6l45.9-8l4.4,22.7l-44.2,6.5
		l-24,4.2l-73.3,11.9l-4.1-21.6l71-11.9L529.3,99.6z M603.2,86.6l4.4,22.6l-4.4,0.8l-4.4-22.6L603.2,86.6z"/>
	<path class="st0" d="M601.7,152.5h-12c-0.4,0-0.6,0-0.6,0.5v64.6c0,0.4,0,0.4,0.6,0.4h12c0.4,0,0.5,0,0.5-0.5V153
		C602,152.7,602,152.5,601.7,152.5z M595.6,214.7c-1.5,0-2.7-1.2-2.8-2.7c0-1.5,1.2-2.8,2.8-2.8s2.8,1.2,2.8,2.8
		c-0.1,1.6-1.4,2.8-3,2.7c0,0,0,0,0,0H595.6z M595.6,162c-1.5,0-2.8-1.2-2.8-2.8s1.2-2.8,2.8-2.8c1.5,0,2.8,1.2,2.8,2.8c0,0,0,0,0,0
		C598.4,160.7,597.2,162,595.6,162c-0.1,0-0.1,0-0.2,0H595.6z"/>
	<path class="st1" d="M102,143.8c-7.2-0.3-14.3,1.4-20.6,5.1c-10,6.1-16,17-16,28.7c0.2,11.9,6.6,22.9,16.9,29
		c12.6,6.6,27.8,6.2,40.1-1v-15.6c0,0,0-1-0.7-0.8c-7.5,8.6-19.6,11.6-30.2,7.3c-7.9-3.4-12.8-11.3-12.3-19.9
		c0.5-8,5.5-15.1,12.9-18.3c10.4-3.8,22.1-1.1,29.7,7.1c0.4,0,0.8,0,0.8-0.4v-15.5C118,145.3,107.2,144,102,143.8z M99,204
		c1.5,0,2.8,1.3,2.7,2.8s-1.3,2.8-2.8,2.7c-1.5,0-2.7-1.3-2.7-2.8C96.2,205.2,97.4,204,99,204c0,0,0.1,0,0.2,0H99z M99,152.4
		c-1.5,0-2.8-1.2-2.8-2.8s1.2-2.8,2.8-2.8s2.8,1.2,2.8,2.8l0,0c0,1.5-1.1,2.7-2.6,2.8L99,152.4z"/>
	<path class="st1" d="M672.4,209.5l-24.7-64.2c-0.3-0.6,0-0.5-0.8-0.5h-12.6c-0.3,0-0.5,0.2-0.6,0.4l-24.4,64.6c0,0.6,0,0.5,0,0.5
		h14.5l5.1-13.3h24.6l5.2,13.3h13.3C672.7,210.3,672.4,209.5,672.4,209.5z M618.2,206.7c-1.5,0-2.8-1.2-2.8-2.8
		c0-1.5,1.2-2.8,2.8-2.8c1.6,0,2.8,1.3,2.8,2.8C621,205.5,619.7,206.8,618.2,206.7c-0.1,0-0.1,0-0.2,0H618.2z M640.9,148.1
		c1.5,0,2.8,1.2,2.8,2.8c0,0,0,0,0,0c0,1.5-1.2,2.8-2.8,2.8c-1.6,0-2.8-1.3-2.8-2.8c0-1.5,1.2-2.7,2.7-2.8L640.9,148.1z
		 M632.6,184.1l8.2-21.7l7.4,21.7H632.6z M663.6,206.7c-1.5,0-2.8-1.2-2.8-2.8c0,0,0,0,0,0c0-1.5,1.2-2.8,2.8-2.8
		c1.5,0,2.8,1.2,2.8,2.8c0,0,0,0,0,0c0,1.5-1.1,2.7-2.6,2.8H663.6z"/>
	<path class="st1" d="M191.9,209.5l-24.7-64.2c-0.3-0.6,0-0.5-0.8-0.5h-12.6c-0.3,0-0.5,0.2-0.6,0.4l-24.4,64.6
		c-0.2,0.6,0,0.5,0,0.5h14.3l5-13.3h24.6l5.2,13.3h13.3C192.4,210.3,191.9,209.5,191.9,209.5z M138.4,206.7c-1.5,0-2.8-1.2-2.8-2.8
		l0,0c0-1.5,1.2-2.8,2.8-2.8c1.5,0,2.8,1.2,2.8,2.8l0,0C141.2,205.5,139.9,206.7,138.4,206.7L138.4,206.7z M160.5,148.6
		c1.6,0,2.8,1.2,2.9,2.8c0,1.6-1.2,2.8-2.8,2.9c-1.6,0-2.8-1.2-2.9-2.8c0,0,0-0.1,0-0.1c0-1.5,1.2-2.7,2.7-2.8H160.5z M152.5,184
		l8.2-21.7l7.4,21.7H152.5z M184,206.6c-1.5,0-2.8-1.2-2.8-2.8l0,0c0-1.5,1.2-2.8,2.8-2.8s2.8,1.2,2.8,2.8c0.1,1.5-1.1,2.8-2.6,2.9
		c-0.1,0-0.2,0-0.3,0L184,206.6z"/>
	<path class="st1" d="M582,209.4c-6.5-10.4-15.1-19.6-22.4-29.7c5.3-2.2,8.9-7.3,9.1-13c0.4-4.7-0.8-9.4-3.5-13.3
		c-4.4-6.5-9.2-8.8-18.8-8.8H530c-0.5,0-0.7,0-0.7,0.5v64.8c0,0.4,0,0.4,0.6,0.4h12c0.4,0,0.5,0,0.5-0.5v-25.3
		c0-0.5,0.4-0.4,0.4-0.4h3.9c6.4,8.8,13,17.3,19.8,26.2h14.8C581.6,210.2,582.1,210,582,209.4z M535.4,206.7c-1.5,0-2.8-1.2-2.8-2.8
		s1.2-2.8,2.8-2.8c1.5,0,2.8,1.2,2.8,2.8S536.9,206.7,535.4,206.7L535.4,206.7z M535.4,153.7c-1.5,0-2.8-1.3-2.8-2.8
		c0-1.5,1.2-2.8,2.8-2.8c1.5,0,2.8,1.2,2.8,2.8C538.2,152.4,536.9,153.7,535.4,153.7z M553.7,168.5c-2.8,3.1-7.6,2.6-11.2,2.5v-13.3
		h0.8c4.4,0,9.6-0.3,11.4,4.4c0.8,2.2,0.3,4.6-1.1,6.4H553.7z M571.2,206.7c-1.5,0-2.8-1.2-2.8-2.8s1.2-2.8,2.8-2.8s2.8,1.2,2.8,2.8
		C574,205.5,572.7,206.7,571.2,206.7c0,0-0.1,0-0.1,0H571.2z"/>
	<path class="st1" d="M522.3,209.5l-24.7-64.2c-0.3-0.6,0-0.5-0.8-0.5h-12.6c-0.3,0-0.5,0.2-0.6,0.4l-24.4,64.6
		c-0.2,0.6,0,0.5,0,0.5h14.3l5.1-13.3h24.6l5.2,13.3h13.3C522.9,210.3,522.3,209.5,522.3,209.5z M470.2,206.7
		c-1.5,0-2.8-1.2-2.8-2.8s1.2-2.8,2.8-2.8s2.8,1.2,2.8,2.8S471.8,206.7,470.2,206.7L470.2,206.7z M490.8,148.1
		c1.5,0,2.8,1.2,2.8,2.8c0,1.5-1.2,2.8-2.8,2.8c-1.6,0-2.8-1.3-2.8-2.8C488,149.3,489.3,148.1,490.8,148.1z M482.9,184.1l8.3-21.7
		l7.4,21.7H482.9z M514.1,206.7c-1.5,0-2.8-1.2-2.8-2.8c0-1.6,1.3-2.8,2.8-2.8c1.5,0,2.8,1.3,2.8,2.8
		C516.8,205.5,515.6,206.7,514.1,206.7z"/>
	<path class="st1" d="M458.7,144.8h-51.2c-0.4,0-0.6,0-0.6,0.5v12.2c0,0.4,0,0.4,0.6,0.4h19.1c0,18,0,34.4,0,52c0,0.4,0,0.4,0.6,0.4
		h12c0.4,0,0.6,0,0.6-0.5c0-17.3,0-34.6,0-51.9c6.5,0,12.6,0,18.9,0c0.4,0,0.6,0,0.6-0.5v-12.2C459.2,145,459.1,144.8,458.7,144.8z
		 M412.1,153.7c-1.5,0-2.8-1.3-2.8-2.8c0-1.5,1.2-2.8,2.8-2.8c1.5,0,2.8,1.2,2.8,2.8C414.9,152.4,413.6,153.7,412.1,153.7z
		 M433,206.7c-1.5,0-2.8-1.2-2.8-2.8c0-1.6,1.3-2.8,2.8-2.8c1.5,0,2.8,1.3,2.8,2.8C435.8,205.5,434.6,206.7,433,206.7z M454.3,153.7
		c-1.5,0-2.8-1.3-2.8-2.8c0-1.5,1.2-2.8,2.8-2.8c1.5,0,2.8,1.2,2.8,2.8C457.1,152.4,455.9,153.7,454.3,153.7z"/>
	<path class="st1" d="M395,144.8h-11.6c-0.7,0-0.6,0.6-0.6,0.6v43.7l-33.1-44.3h-12.7c-0.6,0-0.5,0-0.5,0.5v64.2
		c0,0.9,0.5,0.8,0.5,0.8h11.7c0,0,1.1,0,0.9-0.9v-44.2l33.3,45.1h12.4c0.3,0,0.7-0.2,0.7-0.5c0,0,0-0.1,0-0.1v-64.2
		C395.9,145.4,396,144.8,395,144.8z M343.6,206.7c-1.5,0-2.8-1.2-2.8-2.8c0-1.5,1.2-2.8,2.8-2.8c1.6,0,2.8,1.3,2.8,2.8
		C346.4,205.5,345.1,206.7,343.6,206.7z M343.6,153.7c-1.5,0-2.8-1.3-2.8-2.8c0-1.5,1.2-2.8,2.8-2.8c1.5,0,2.8,1.2,2.8,2.8
		C346.4,152.4,345.1,153.7,343.6,153.7z M386.6,150.9c0-1.5,1.2-2.8,2.8-2.8c1.5,0,2.8,1.2,2.8,2.8s-1.2,2.8-2.8,2.8
		C387.8,153.6,386.6,152.4,386.6,150.9z M390.6,206.7c-1.5,0-2.8-1.2-2.8-2.8c0-1.5,1.2-2.8,2.8-2.8c1.6,0,2.8,1.3,2.8,2.8
		C393.4,205.5,392.2,206.7,390.6,206.7z"/>
	<path class="st1" d="M324,144.8h-12c-0.4,0-0.6,0-0.6,0.5v64.6c0,0.4,0,0.4,0.6,0.4h12c0.4,0,0.5,0,0.5-0.5v-64.5
		C324.5,145,324.5,144.8,324,144.8z M318,206.7c-1.5,0-2.8-1.2-2.8-2.8c0-1.6,1.3-2.8,2.8-2.8c1.5,0,2.8,1.3,2.8,2.8
		C320.8,205.5,319.5,206.7,318,206.7C318,206.7,318,206.7,318,206.7z M318,153.7c-1.6,0-2.8-1.3-2.8-2.8c0-1.5,1.3-2.8,2.8-2.8
		c1.5,0,2.8,1.2,2.8,2.8l0,0C320.8,152.4,319.5,153.7,318,153.7z"/>
	<path class="st1" d="M299.6,155.2c-4.1-6.7-11.4-10.7-19.3-10.4c-6.9-0.5-21,0-21,0s-1-0.2-0.9,0.7v64.2c0,0.3,0.3,0.6,0.6,0.6
		c0,0,0.1,0,0.1,0h11.6c0.6,0,0.8-0.5,0.8-0.5c0-25.8,0-21.6,0-22.6h10c11.7-0.1,21.1-9.6,21-21.3
		C302.6,162.1,301.6,158.5,299.6,155.2z M265.1,206.7c-1.5,0-2.8-1.2-2.8-2.8c0,0,0,0,0,0c0-1.5,1.2-2.8,2.8-2.8s2.8,1.2,2.8,2.8
		c0,0,0,0,0,0C267.9,205.5,266.6,206.7,265.1,206.7z M265.1,153.7c-1.5,0-2.8-1.3-2.8-2.8c0-1.5,1.3-2.8,2.8-2.8
		c1.5,0,2.8,1.2,2.8,2.8C267.9,152.4,266.6,153.7,265.1,153.7z M287.7,171.8c-2.2,2.3-5.3,3.5-8.4,3.4c-2.9,0.2-5.7,0-7.6,0v-17.7
		c0-0.4,0.6-0.4,0.6-0.4c2,0,4.4,0,6.2,0c4.7,0.4,9.2,1.6,10.9,6.3C290.4,166.3,289.8,169.5,287.7,171.8z"/>
	<path class="st1" d="M251.5,209.4c-6.5-10.4-15.1-19.6-22.4-29.7c5.3-2.2,8.9-7.3,9.2-13c0.4-4.7-0.9-9.4-3.6-13.3
		c-4.4-6.5-9.2-8.8-18.7-8.8h-16.4c-0.5,0-0.7,0-0.7,0.5v64.8c0,0.4,0,0.4,0.6,0.4h12c0.4,0,0.5,0,0.5-0.5v-25.3
		c0-0.5,0.4-0.4,0.4-0.4h4c6.3,8.8,13,17.3,19.7,26.2h14.8C251.1,210.2,251.7,210,251.5,209.4z M206.2,206.7c-1.5,0-2.8-1.2-2.8-2.8
		c0,0,0,0,0,0c0-1.5,1.2-2.8,2.8-2.8c1.6,0,2.8,1.3,2.8,2.8C209,205.5,207.7,206.7,206.2,206.7z M206.2,153.7
		c-1.5,0-2.8-1.3-2.8-2.8c0-1.5,1.2-2.8,2.8-2.8l0,0c1.5,0,2.8,1.2,2.8,2.8C209,152.4,207.7,153.7,206.2,153.7z M223.1,168.5
		c-2.8,3.1-7.6,2.6-11.2,2.5v-13.3h0.7c4.4,0,9.6-0.3,11.4,4.4C224.8,164.3,224.5,166.7,223.1,168.5z M240.1,206.7
		c-1.5,0-2.8-1.2-2.8-2.8c0,0,0,0,0,0c0-1.5,1.2-2.8,2.8-2.8s2.8,1.2,2.8,2.8c0,0,0,0,0,0C242.9,205.5,241.6,206.7,240.1,206.7z"/>
	<path class="st0" d="M620.8,236.1c2.8,0,5.5,0.7,7.9,2c2.5,1.4,4.6,3.4,6,5.9c1.4,2.5,2.1,5.3,2.2,8.1c0,2.8-0.7,5.6-2.1,8
		c-1.4,2.5-3.4,4.5-5.9,5.9c-5,2.8-11,2.8-16,0c-2.5-1.4-4.5-3.4-5.9-5.9c-1.4-2.4-2.1-5.2-2.1-8c0-2.8,0.7-5.6,2.2-8.1
		c1.4-2.5,3.4-4.6,6-5.9C615.3,236.8,618.1,236.1,620.8,236.1z M620.8,239.2c-2.2,0-4.4,0.6-6.3,1.6c-2,1.1-3.7,2.8-4.8,4.8
		c-2.2,4-2.2,8.9,0,12.9c1.1,2,2.8,3.7,4.8,4.8c2,1.1,4.2,1.7,6.4,1.7c2.3,0,4.5-0.6,6.4-1.7c2-1.1,3.7-2.8,4.8-4.8
		c1.1-1.9,1.7-4.2,1.7-6.4c0-2.3-0.6-4.5-1.7-6.5c-1.1-2-2.8-3.7-4.8-4.8C625.3,239.8,623.1,239.2,620.8,239.2z M613.6,260.7v-17
		h8.8c0.9,0,1.9,0.3,2.7,0.7c0.7,0.4,1.2,1,1.6,1.6c0.4,0.7,0.6,1.6,0.6,2.4c0,1.2-0.4,2.3-1.2,3.2c-0.9,0.9-2.1,1.5-3.4,1.6
		c0.4,0.2,0.8,0.4,1.2,0.7c0.4,0.4,0.8,0.8,1.1,1.3c0,0,0.6,0.9,1.3,2.1l1.9,3.4h-4.4l-1.5-2.8c-0.5-1.3-1.4-2.5-2.4-3.5
		c-0.7-0.5-1.5-0.7-2.4-0.7h-0.9v7H613.6z M617,251h1.4c1.2,0.1,2.5,0.1,3.7,0c0.4-0.2,0.8-0.4,1.1-0.8c0.3-0.4,0.4-0.9,0.4-1.3
		c0-0.5-0.1-0.9-0.4-1.3c-0.3-0.4-0.7-0.6-1.1-0.8c-1.2-0.1-2.5-0.1-3.7,0H617L617,251z"/>
	<path class="st0" d="M178.5,326.2h1.8v9.2c0,3.7-1.8,4.8-4.2,4.8c-0.6,0-1.3-0.1-1.9-0.3l0.3-1.5c0.5,0.2,1,0.3,1.5,0.3
		c1.6,0,2.6-0.7,2.6-3.4L178.5,326.2z"/>
	<path class="st0" d="M194.9,332.9c0.5,3.5-2,6.8-5.5,7.3c-0.3,0-0.5,0.1-0.8,0.1c-3.5-0.1-6.3-2.9-6.2-6.4c0-0.2,0-0.4,0-0.6
		c-0.4-3.6,2.2-6.8,5.8-7.2c0.2,0,0.3,0,0.5,0c3.5,0.1,6.2,3,6.1,6.4C194.9,332.7,194.9,332.8,194.9,332.9z M184.2,332.9
		c0,3,1.6,5.6,4.4,5.6s4.4-2.6,4.4-5.7c0-3.1-1.5-5.6-4.4-5.6s-4.3,2.9-4.3,5.9L184.2,332.9z"/>
	<path class="st0" d="M199.3,335.9l-1.4,4.4H196l4.7-13.8h2.1l4.7,13.8h-1.9l-1.5-4.4H199.3z M199.3,325.6c0-1.2,0.5-2.1,1.4-2.1
		c0.4,0,0.9,0.2,1.2,0.4c0.3,0.2,0.6,0.3,1,0.4c0.3,0,0.5,0,0.5-0.8h1c0,1.3-0.4,2-1.4,2c-0.4,0-0.9-0.2-1.2-0.4
		c-0.3-0.2-0.6-0.3-0.9-0.4c-0.4,0-0.5,0.4-0.5,0.9H199.3z M203.7,334.4l-1.4-4c-0.3-0.9-0.5-1.7-0.7-2.5l0,0c0,0.8-0.4,1.6-0.7,2.5
		l-1.4,4H203.7z"/>
	<path class="st0" d="M220.9,332.9c0.5,3.5-2,6.8-5.5,7.3c-0.3,0-0.6,0.1-0.9,0.1c-3.5,0-6.4-2.7-6.4-6.2c0-0.3,0-0.6,0-0.8
		c-0.4-3.6,2.3-6.8,5.8-7.2c0.2,0,0.4,0,0.6,0c3.4-0.1,6.3,2.7,6.4,6.1C220.9,332.4,220.9,332.7,220.9,332.9z M210.2,332.9
		c0,3,1.6,5.6,4.4,5.6s4.4-2.6,4.4-5.7c0-3.1-1.4-5.6-4.4-5.6c-3,0-4.4,2.9-4.4,5.9V332.9z"/>
	<path class="st0" d="M239.1,333.9c0-1.9,0-4.4,0-5.9l0,0c-0.5,1.6-1.1,3.3-1.7,5.2l-2.7,6.7h-1.4l-2.2-6.5
		c-0.7-1.9-1.2-3.7-1.6-5.4l0,0c0,1.7,0,4-0.3,6.1l-0.4,5.9h-1.7l0.9-13.8h2.2l2.3,6.7c0.5,1.7,1,3.2,1.4,4.4l0,0
		c0.4-1.4,0.8-2.9,1.5-4.4l2.4-6.7h2.3L241,340h-1.7L239.1,333.9z"/>
	<path class="st0" d="M245.7,326.2V340h-1.8v-13.8H245.7z"/>
	<path class="st0" d="M259.2,339.4c-1.4,0.5-2.8,0.7-4.2,0.8c-3.6,0.3-6.7-2.3-7.1-5.9c0-0.4,0-0.7,0-1.1c-0.1-3.8,2.9-7,6.7-7.1
		c0.2,0,0.5,0,0.7,0c1.2,0,2.4,0.2,3.4,0.6l-0.4,1.5c-0.9-0.4-2-0.6-3-0.6c-2.8-0.2-5.3,1.9-5.5,4.7c0,0.3,0,0.6,0,0.8
		c-0.3,2.8,1.8,5.2,4.5,5.5c0.3,0,0.5,0,0.8,0c0.8,0,1.6-0.1,2.3-0.4v-4.1h-2.8v-1.4h4.4L259.2,339.4z"/>
	<path class="st0" d="M263.7,326.2v8.1c0,3.1,1.3,4.4,3.2,4.4s3.3-1.3,3.3-4.4v-8.1h1.8v8c0,4.4-2.2,6-5.2,6s-5-1.6-5-5.9v-8.1
		H263.7z"/>
	<path class="st0" d="M282.2,333.5h-5.3v5h5.9v1.5h-7.7v-13.8h7.4v1.5h-5.6v4.4h5.3V333.5z"/>
	<path class="st0" d="M285.1,326.2h1.8v12.2h5.9v1.5h-7.6V326.2z"/>
	<path class="st0" d="M299.1,326.2h1.9v12.2h5.8v1.5h-7.7V326.2z"/>
	<path class="st0" d="M319.7,332.9c0.5,3.5-2,6.8-5.5,7.3c-0.3,0-0.6,0.1-0.9,0.1c-3.5-0.1-6.2-2.9-6.2-6.4c0-0.2,0-0.4,0-0.6
		c-0.4-3.6,2.2-6.8,5.8-7.2c0.2,0,0.3,0,0.5,0c3.5,0,6.3,2.9,6.2,6.3C319.7,332.6,319.7,332.8,319.7,332.9z M309,332.9
		c0,3,1.6,5.6,4.4,5.6s4.4-2.6,4.4-5.7c0-3.1-1.4-5.6-4.4-5.6s-4.4,2.9-4.4,5.9V332.9z"/>
	<path class="st0" d="M323.7,326.2v8.1c0,3.1,1.4,4.4,3.2,4.4c1.8,0,3.4-1.3,3.4-4.4v-8.1h1.7v8c0,4.4-2.2,6-5.2,6s-5-1.6-5-5.9
		v-8.1H323.7z"/>
	<path class="st0" d="M335.2,326.4c1.1-0.2,2.3-0.3,3.4-0.3c1.4-0.1,2.8,0.3,4,1.1c0.7,0.7,1.1,1.6,1.1,2.6c0,1.6-1,3.1-2.6,3.5l0,0
		c1.1,0.5,1.9,1.6,2,2.8c0.2,1.3,0.6,2.5,1.1,3.8h-1.8c-0.4-1.1-0.7-2.2-0.9-3.3c-0.4-1.9-1.1-2.6-2.7-2.7h-1.7v6h-1.8L335.2,326.4z
		 M336.9,332.7h1.8c1.9,0,3.1-1.1,3.1-2.6c0-1.5-1.3-2.6-3.1-2.6c-0.6-0.1-1.2-0.1-1.8,0V332.7z"/>
	<path class="st0" d="M353.2,333.5h-5.4v5h6.2v1.5h-8v-13.8h7.4v1.5h-5.7v4.4h5.4V333.5z"/>
	<path class="st0" d="M356.2,340v-13.8h1.9l4.4,6.9c0.9,1.4,1.7,2.9,2.5,4.4l0,0c-0.1-1.9-0.1-3.8,0-5.7v-5.7h1.7v13.8h-1.8l-4.4-7
		c-1-1.4-1.8-2.9-2.6-4.4l0,0c0,1.7,0,3.4,0,5.7v5.9L356.2,340z"/>
	<path class="st0" d="M379.1,339.5c-1.2,0.4-2.4,0.7-3.6,0.6l-0.4,0.8c0.8,0.1,1.4,0.7,1.4,1.5c0,1.2-1,1.7-2.1,1.7
		c-0.5,0-1-0.1-1.5-0.4l0.3-0.9c0.4,0.2,0.8,0.3,1.1,0.3c0.5,0,0.8,0,0.8-0.6s-0.6-0.8-1.5-0.8l0.8-1.6c-3.5-0.3-6.1-3.4-5.8-6.9
		c0,0,0,0,0,0c0.1-4.1,3.6-7.3,7.7-7.2c0.9,0,1.8,0.2,2.7,0.6l-0.4,1.5c-0.9-0.4-1.8-0.6-2.8-0.6c-2.8-0.2-5.2,2-5.4,4.8
		c0,0.3,0,0.6,0,0.9c-0.3,2.7,1.7,5.2,4.4,5.5c0.3,0,0.6,0,0.8,0c1,0,2-0.2,2.9-0.6L379.1,339.5z"/>
	<path class="st0" d="M392.7,332.9c0.5,3.5-2,6.8-5.5,7.3c-0.3,0-0.6,0.1-0.9,0.1c-3.5-0.1-6.3-2.9-6.2-6.4c0-0.2,0-0.4,0-0.6
		c-0.4-3.6,2.2-6.8,5.8-7.2c0.2,0,0.3,0,0.5,0c3.5,0,6.3,2.9,6.2,6.3C392.7,332.6,392.7,332.8,392.7,332.9z M382,332.9
		c0,3,1.6,5.6,4.4,5.6c2.8,0,4.4-2.6,4.4-5.7c0-3.1-1.5-5.6-4.4-5.6s-4.4,2.9-4.4,5.9V332.9z"/>
	<path class="st0" d="M393.1,342.5c0.5-1.6,0.9-3.2,1.2-4.9h2c-0.5,1.7-1.1,3.4-1.9,5L393.1,342.5z"/>
	<path class="st0" d="M404.6,326.2v8.1c0,3.1,1.3,4.4,3.2,4.4s3.3-1.3,3.3-4.4v-8.1h1.8v8c0,4.4-2.2,6-5.2,6s-5-1.6-5-5.9v-8.1
		H404.6z"/>
	<path class="st0" d="M416,340v-13.8h1.9l4.4,6.9c0.9,1.4,1.7,2.9,2.5,4.4l0,0c-0.1-1.9-0.1-3.7,0-5.6v-5.7h1.7V340h-1.8l-4.4-7
		c-1-1.4-1.8-2.9-2.6-4.4l0,0c0,1.7,0,3.4,0,5.7v5.9L416,340z"/>
	<path class="st0" d="M431.2,326.2V340h-1.9v-13.8H431.2z"/>
	<path class="st0" d="M434.3,326.4c1.1-0.2,2.3-0.3,3.4-0.3c1.4-0.1,2.8,0.3,3.8,1.1c0.8,0.7,1.2,1.8,1.2,2.9
		c0.1,1.1-0.3,2.1-1.1,2.9c-1.2,1.1-2.8,1.7-4.4,1.5c-0.5,0.1-0.9,0.1-1.4,0v5.5h-1.8L434.3,326.4z M436.1,333c0.5,0.1,1,0.1,1.5,0
		c2.2,0,3.4-1.1,3.4-2.9s-1.3-2.7-3.2-2.7c-0.6-0.1-1.1-0.1-1.7,0V333z"/>
	<path class="st0" d="M452.2,333.5h-5.3v5h6v1.5h-7.8v-13.8h7.4v1.5h-5.6v4.4h5.3V333.5z"/>
	<path class="st0" d="M454.9,337.8c0.9,0.6,2,0.9,3.1,0.9c1.8,0,2.9-0.9,2.9-2.3s-0.7-2-2.6-2.7s-3.6-2-3.6-3.9
		c0.1-2.2,1.9-3.9,4.1-3.8c0.1,0,0.2,0,0.3,0c1.1,0,2.1,0.2,3.1,0.7l-0.5,1.5c-0.8-0.4-1.7-0.7-2.6-0.7c-1.9,0-2.6,1.1-2.6,2.1
		c0,0.9,0.8,1.9,2.7,2.7c1.9,0.8,3.5,2,3.5,4c0,2-1.5,3.9-4.8,3.9c-1.2,0-2.4-0.3-3.5-0.8L454.9,337.8z"/>
	<path class="st0" d="M465,337.8c1,0.6,2.1,0.9,3.2,0.9c1.8,0,2.9-0.9,2.9-2.3s-0.8-2-2.6-2.7c-1.9-0.7-3.6-2-3.6-3.9
		c0.1-2.2,1.9-3.9,4.1-3.8c0.1,0,0.2,0,0.3,0c1.1,0,2.1,0.2,3.1,0.7l-0.5,1.5c-0.8-0.4-1.8-0.7-2.7-0.7c-1.9,0-2.6,1.1-2.6,2.1
		s0.8,1.9,2.7,2.7c1.9,0.8,3.5,2,3.5,4s-1.6,3.9-4.8,3.9c-1.2,0-2.4-0.3-3.5-0.8L465,337.8z"/>
	<path class="st0" d="M487,332.9c0.5,3.5-2,6.8-5.5,7.3c-0.3,0-0.6,0.1-0.9,0.1c-3.5-0.1-6.3-2.9-6.2-6.4c0-0.2,0-0.4,0-0.6
		c-0.4-3.6,2.2-6.8,5.8-7.2c0.2,0,0.3,0,0.5,0c3.5,0,6.3,2.9,6.2,6.3C487,332.6,487,332.8,487,332.9z M476.3,332.9
		c0,3,1.6,5.6,4.4,5.6c2.8,0,4.4-2.6,4.4-5.7c0-3.1-1.5-5.6-4.4-5.6s-4.4,2.9-4.4,5.9L476.3,332.9z"/>
	<path class="st0" d="M491.1,335.9l-1.5,4.4h-1.8l4.7-13.8h2.1l4.7,13.8h-1.9l-1.5-4.4H491.1z M495.6,334.5l-1.4-4
		c-0.3-0.9-0.5-1.7-0.7-2.5l0,0c0,0.8-0.4,1.6-0.7,2.5l-1.3,4H495.6z"/>
	<path class="st0" d="M501.5,326.2h1.8v12.2h5.8v1.5h-7.6V326.2z"/>
	<path class="st0" d="M509.9,342.5c0.6-1.6,1-3.2,1.2-4.9h2c-0.5,1.7-1.1,3.4-1.9,5L509.9,342.5z"/>
	<path class="st0" d="M519.6,326.2h1.8v12.2h5.9v1.5h-7.6V326.2z"/>
	<path class="st0" d="M529.3,326.4c1.2-0.2,2.5-0.3,3.8-0.3c2-0.2,4,0.4,5.6,1.7c1.3,1.3,2,3.1,1.9,4.9c0.1,2-0.6,3.9-2,5.4
		c-1.7,1.4-3.9,2.1-6.1,2c-1.1,0.1-2.2,0.1-3.2,0V326.4z M531,338.6c0.6,0.1,1.2,0.1,1.8,0c2.9,0.3,5.5-1.8,5.9-4.7
		c0-0.4,0-0.7,0-1.1c0.2-2.7-1.7-5.1-4.4-5.3c-0.4,0-0.8,0-1.1,0c-0.7-0.1-1.4-0.1-2.1,0V338.6z"/>
	<path class="st0" d="M544.8,335.9l-1.5,4.4h-1.8l4.4-13.8h2.2l5,13.4h-1.9l-1.5-4.4L544.8,335.9z M549.2,334.5l-1.3-4
		c-0.3-0.8-0.5-1.6-0.7-2.5l0,0c0,0.8-0.4,1.6-0.7,2.5l-1.3,4H549.2z"/>
</g>
</svg>
